<?xml version="1.0" encoding="UTF-8" standalone="no"?>
<!DOCTYPE svg PUBLIC "-//W3C//DTD SVG 1.1//EN"
 "http://www.w3.org/Graphics/SVG/1.1/DTD/svg11.dtd">
<!-- Generated by graphviz version 2.44.1 (20200629.0846)
 -->
<!-- Title: g Pages: 1 -->
<svg width="366pt" height="180pt"
 viewBox="0.00 0.00 366.00 179.60" xmlns="http://www.w3.org/2000/svg" xmlns:xlink="http://www.w3.org/1999/xlink">
<g id="graph0" class="graph" transform="scale(1 1) rotate(0) translate(4 175.6)">
<title>g</title>
<polygon fill="white" stroke="transparent" points="-4,4 -4,-175.6 362,-175.6 362,4 -4,4"/>
<g id="clust1" class="cluster">
<title>cluster_824066145</title>
<polygon fill="#ececec" stroke="black" points="8,-8 8,-163.6 350,-163.6 350,-8 8,-8"/>
<text text-anchor="middle" x="34.65" y="-147" font-family="Times New Roman,serif" font-size="14.00">vadere</text>
</g>
<g id="clust2" class="cluster">
<title>cluster_198992779</title>
<polygon fill="#d8d8d8" stroke="black" points="16,-16 16,-130.8 342,-130.8 342,-16 16,-16"/>
<text text-anchor="middle" x="50.44" y="-114.2" font-family="Times New Roman,serif" font-size="14.00">simulator</text>
</g>
<!-- FootStepGroupIDProcessor843188518 -->
<g id="node1" class="node">
<title>FootStepGroupIDProcessor843188518</title>
<polygon fill="#ffffff" stroke="transparent" points="334,-98 24,-98 24,-24 334,-24 334,-98"/>
<text text-anchor="start" x="29" y="-80.4" font-family="Times New Roman,serif" font-size="14.00">(C)FootStepGroupIDProcessor</text>
<text text-anchor="start" x="29" y="-56.4" font-family="Times New Roman,serif" font-size="14.00"># doUpdate(state: SimulationState)</text>
<text text-anchor="start" x="28.67" y="-32.4" font-family="Times New Roman,serif" font-size="14.00">+ toStrings(key: EventtimePedestrianIdKey): String[]</text>
<polygon fill="black" stroke="black" points="24,-73 24,-73 334,-73 334,-73 24,-73"/>
<polygon fill="none" stroke="black" points="24,-24 24,-98 334,-98 334,-24 24,-24"/>
</g>
</g>
</svg>
