<?xml version="1.0" encoding="UTF-8" standalone="no"?>
<!DOCTYPE svg PUBLIC "-//W3C//DTD SVG 1.1//EN"
 "http://www.w3.org/Graphics/SVG/1.1/DTD/svg11.dtd">
<!-- Generated by graphviz version 2.44.1 (20200629.0846)
 -->
<!-- Title: g Pages: 1 -->
<svg width="454pt" height="396pt"
 viewBox="0.00 0.00 454.00 395.60" xmlns="http://www.w3.org/2000/svg" xmlns:xlink="http://www.w3.org/1999/xlink">
<g id="graph0" class="graph" transform="scale(1 1) rotate(0) translate(4 391.6)">
<title>g</title>
<polygon fill="white" stroke="transparent" points="-4,4 -4,-391.6 450,-391.6 450,4 -4,4"/>
<g id="clust1" class="cluster">
<title>cluster_824066145</title>
<polygon fill="#ececec" stroke="black" points="8,-8 8,-379.6 438,-379.6 438,-8 8,-8"/>
<text text-anchor="middle" x="34.65" y="-363" font-family="Times New Roman,serif" font-size="14.00">vadere</text>
</g>
<g id="clust2" class="cluster">
<title>cluster_198992779</title>
<polygon fill="#d8d8d8" stroke="black" points="16,-16 16,-346.8 430,-346.8 430,-16 16,-16"/>
<text text-anchor="middle" x="50.44" y="-330.2" font-family="Times New Roman,serif" font-size="14.00">simulator</text>
</g>
<!-- SIRGroup693799383 -->
<g id="node1" class="node">
<title>SIRGroup693799383</title>
<polygon fill="#ffffff" stroke="transparent" points="421.5,-314 24.5,-314 24.5,-24 421.5,-24 421.5,-314"/>
<text text-anchor="start" x="30" y="-296.4" font-family="Times New Roman,serif" font-size="14.00">(C)SIRGroup</text>
<text text-anchor="start" x="30" y="-272.4" font-family="Times New Roman,serif" font-size="14.00">&#45; &#160;&#160;id: int [1]</text>
<text text-anchor="start" x="30" y="-248.4" font-family="Times New Roman,serif" font-size="14.00"># &#160;&#160;members: ArrayList&lt;Pedestrian&gt; [0..*]</text>
<text text-anchor="start" x="30" y="-224.4" font-family="Times New Roman,serif" font-size="14.00">&#45; &#160;&#160;potentialFieldTarget: IPotentialFieldTarget [0..1]</text>
<text text-anchor="start" x="30" y="-200.4" font-family="Times New Roman,serif" font-size="14.00">&#45; &#160;&#160;size: int [1]</text>
<text text-anchor="start" x="30" y="-176.4" font-family="Times New Roman,serif" font-size="14.00">+ addMember(ped: Pedestrian)</text>
<text text-anchor="start" x="30" y="-152.4" font-family="Times New Roman,serif" font-size="14.00">+ agentElementEncountered(element: ScenarioElement, agentId: int)</text>
<text text-anchor="start" x="30" y="-128.4" font-family="Times New Roman,serif" font-size="14.00">+ agentNextTargetSet(nextSpeed: double, agentId: int)</text>
<text text-anchor="start" x="29.92" y="-104.4" font-family="Times New Roman,serif" font-size="14.00">+ agentTargetsChanged(targetIds: LinkedList&lt;Integer&gt;, agentId: int)</text>
<text text-anchor="start" x="30" y="-80.4" font-family="Times New Roman,serif" font-size="14.00">+ isMember(ped: Pedestrian): boolean</text>
<text text-anchor="start" x="30" y="-56.4" font-family="Times New Roman,serif" font-size="14.00">+ memberStream(): Stream&lt;Pedestrian&gt;</text>
<text text-anchor="start" x="30" y="-32.4" font-family="Times New Roman,serif" font-size="14.00">+ removeMember(ped: Pedestrian): boolean</text>
<polygon fill="black" stroke="black" points="25,-289 25,-289 422,-289 422,-289 25,-289"/>
<polygon fill="black" stroke="black" points="25,-193 25,-193 422,-193 422,-193 25,-193"/>
<polygon fill="none" stroke="black" points="24.5,-24 24.5,-314 421.5,-314 421.5,-24 24.5,-24"/>
</g>
</g>
</svg>
