<?xml version="1.0" encoding="UTF-8" standalone="no"?>
<!DOCTYPE svg PUBLIC "-//W3C//DTD SVG 1.1//EN"
 "http://www.w3.org/Graphics/SVG/1.1/DTD/svg11.dtd">
<!-- Generated by graphviz version 2.44.1 (20200629.0846)
 -->
<!-- Title: g Pages: 1 -->
<svg width="360pt" height="228pt"
 viewBox="0.00 0.00 360.00 227.60" xmlns="http://www.w3.org/2000/svg" xmlns:xlink="http://www.w3.org/1999/xlink">
<g id="graph0" class="graph" transform="scale(1 1) rotate(0) translate(4 223.6)">
<title>g</title>
<polygon fill="white" stroke="transparent" points="-4,4 -4,-223.6 356,-223.6 356,4 -4,4"/>
<g id="clust1" class="cluster">
<title>cluster_824066145</title>
<polygon fill="#ececec" stroke="black" points="8,-8 8,-211.6 344,-211.6 344,-8 8,-8"/>
<text text-anchor="middle" x="34.65" y="-195" font-family="Times New Roman,serif" font-size="14.00">vadere</text>
</g>
<g id="clust2" class="cluster">
<title>cluster_198992779</title>
<polygon fill="#d8d8d8" stroke="black" points="16,-16 16,-178.8 336,-178.8 336,-16 16,-16"/>
<text text-anchor="middle" x="50.44" y="-162.2" font-family="Times New Roman,serif" font-size="14.00">simulator</text>
</g>
<!-- AbstractGroupModel878952343 -->
<g id="node1" class="node">
<title>AbstractGroupModel878952343</title>
<polygon fill="#ffffff" stroke="transparent" points="327.5,-146 24.5,-146 24.5,-24 327.5,-24 327.5,-146"/>
<text text-anchor="start" x="30" y="-128.4" font-family="Times New Roman,serif" font-size="14.00">(C)AbstractGroupModel&lt;T extends Group&gt;</text>
<text text-anchor="start" x="30" y="-104.4" font-family="Times New Roman,serif" font-size="14.00"># assignToGroup(pedestrian: Pedestrian)</text>
<text text-anchor="start" x="30" y="-80.4" font-family="Times New Roman,serif" font-size="14.00"># getNewGroup(size: int): T</text>
<text text-anchor="start" x="30" y="-56.4" font-family="Times New Roman,serif" font-size="14.00"># getNewGroup(id: int, size: int): T</text>
<text text-anchor="start" x="29.75" y="-32.4" font-family="Times New Roman,serif" font-size="14.00"># registerMember(ped: Pedestrian, currentGroup: T)</text>
<polygon fill="black" stroke="black" points="25,-121 25,-121 328,-121 328,-121 25,-121"/>
<polygon fill="none" stroke="black" points="24.5,-24 24.5,-146 327.5,-146 327.5,-24 24.5,-24"/>
</g>
</g>
</svg>
