<?xml version="1.0" encoding="UTF-8" standalone="no"?>
<!DOCTYPE svg PUBLIC "-//W3C//DTD SVG 1.1//EN"
 "http://www.w3.org/Graphics/SVG/1.1/DTD/svg11.dtd">
<!-- Generated by graphviz version 2.44.1 (20200629.0846)
 -->
<!-- Title: g Pages: 1 -->
<svg width="270pt" height="204pt"
 viewBox="0.00 0.00 270.00 203.60" xmlns="http://www.w3.org/2000/svg" xmlns:xlink="http://www.w3.org/1999/xlink">
<g id="graph0" class="graph" transform="scale(1 1) rotate(0) translate(4 199.6)">
<title>g</title>
<polygon fill="white" stroke="transparent" points="-4,4 -4,-199.6 266,-199.6 266,4 -4,4"/>
<g id="clust1" class="cluster">
<title>cluster_824066145</title>
<polygon fill="#ececec" stroke="black" points="8,-8 8,-187.6 254,-187.6 254,-8 8,-8"/>
<text text-anchor="middle" x="34.65" y="-171" font-family="Times New Roman,serif" font-size="14.00">vadere</text>
</g>
<g id="clust2" class="cluster">
<title>cluster_1482620290</title>
<polygon fill="#d8d8d8" stroke="black" points="16,-16 16,-154.8 246,-154.8 246,-16 16,-16"/>
<text text-anchor="middle" x="36.83" y="-138.2" font-family="Times New Roman,serif" font-size="14.00">state</text>
</g>
<!-- AttributesSIRG2068707775 -->
<g id="node1" class="node">
<title>AttributesSIRG2068707775</title>
<polygon fill="#ffffff" stroke="transparent" points="238,-122 24,-122 24,-24 238,-24 238,-122"/>
<text text-anchor="start" x="29" y="-104.4" font-family="Times New Roman,serif" font-size="14.00">(C)AttributesSIRG</text>
<text text-anchor="start" x="28.56" y="-80.4" font-family="Times New Roman,serif" font-size="14.00">&#45; &#160;&#160;infectionMaxDistance: double [1]</text>
<text text-anchor="start" x="29" y="-56.4" font-family="Times New Roman,serif" font-size="14.00">&#45; &#160;&#160;infectionRate: double [1]</text>
<text text-anchor="start" x="29" y="-32.4" font-family="Times New Roman,serif" font-size="14.00">&#45; &#160;&#160;infectionsAtStart: int [1]</text>
<polygon fill="black" stroke="black" points="24,-97 24,-97 238,-97 238,-97 24,-97"/>
<polygon fill="none" stroke="black" points="24,-24 24,-122 238,-122 238,-24 24,-24"/>
</g>
</g>
</svg>
