<?xml version="1.0" encoding="UTF-8" standalone="no"?>
<!DOCTYPE svg PUBLIC "-//W3C//DTD SVG 1.1//EN"
 "http://www.w3.org/Graphics/SVG/1.1/DTD/svg11.dtd">
<!-- Generated by graphviz version 2.44.1 (20200629.0846)
 -->
<!-- Title: g Pages: 1 -->
<svg width="1282pt" height="1178pt"
 viewBox="0.00 0.00 1282.00 1178.20" xmlns="http://www.w3.org/2000/svg" xmlns:xlink="http://www.w3.org/1999/xlink">
<g id="graph0" class="graph" transform="scale(1 1) rotate(0) translate(4 1174.2)">
<title>g</title>
<polygon fill="white" stroke="transparent" points="-4,4 -4,-1174.2 1278,-1174.2 1278,4 -4,4"/>
<g id="clust1" class="cluster">
<title>cluster_824066145</title>
<polygon fill="#ececec" stroke="black" points="8,-8 8,-1162.2 1266,-1162.2 1266,-8 8,-8"/>
<text text-anchor="middle" x="34.65" y="-1145.6" font-family="Times New Roman,serif" font-size="14.00">vadere</text>
</g>
<g id="clust2" class="cluster">
<title>cluster_1433359601</title>
<polygon fill="#d8d8d8" stroke="black" points="716,-136 716,-226.8 800,-226.8 800,-136 716,-136"/>
<text text-anchor="middle" x="733.34" y="-210.2" font-family="Times New Roman,serif" font-size="14.00">util</text>
</g>
<g id="clust3" class="cluster">
<title>cluster_1482620290</title>
<polygon fill="#d8d8d8" stroke="black" points="808,-112 808,-250.8 1258,-250.8 1258,-112 808,-112"/>
<text text-anchor="middle" x="828.83" y="-234.2" font-family="Times New Roman,serif" font-size="14.00">state</text>
</g>
<g id="clust4" class="cluster">
<title>cluster_198992779</title>
<polygon fill="#d8d8d8" stroke="black" points="16,-16 16,-1129.4 708,-1129.4 708,-16 16,-16"/>
<text text-anchor="middle" x="50.44" y="-1112.8" font-family="Times New Roman,serif" font-size="14.00">simulator</text>
</g>
<!-- VPoint552144153 -->
<g id="node1" class="node">
<title>VPoint552144153</title>
<polygon fill="#ffffff" stroke="transparent" points="792,-194 724,-194 724,-144 792,-144 792,-194"/>
<text text-anchor="start" x="728.84" y="-176.4" font-family="Times New Roman,serif" font-size="14.00">(C)VPoint</text>
<text text-anchor="start" x="729" y="-152.4" font-family="Times New Roman,serif" font-size="14.00">...</text>
<polygon fill="black" stroke="black" points="724,-169 724,-169 792,-169 792,-169 724,-169"/>
<polygon fill="none" stroke="black" points="724,-144 724,-194 792,-194 792,-144 724,-144"/>
</g>
<!-- AttributesSIRG2068707775 -->
<g id="node2" class="node">
<title>AttributesSIRG2068707775</title>
<polygon fill="#ffffff" stroke="transparent" points="1030,-218 816,-218 816,-120 1030,-120 1030,-218"/>
<text text-anchor="start" x="821" y="-200.4" font-family="Times New Roman,serif" font-size="14.00">(C)AttributesSIRG</text>
<text text-anchor="start" x="820.56" y="-176.4" font-family="Times New Roman,serif" font-size="14.00">&#45; &#160;&#160;infectionMaxDistance: double [1]</text>
<text text-anchor="start" x="821" y="-152.4" font-family="Times New Roman,serif" font-size="14.00">&#45; &#160;&#160;infectionRate: double [1]</text>
<text text-anchor="start" x="821" y="-128.4" font-family="Times New Roman,serif" font-size="14.00">&#45; &#160;&#160;infectionsAtStart: int [1]</text>
<polygon fill="black" stroke="black" points="816,-193 816,-193 1030,-193 1030,-193 816,-193"/>
<polygon fill="none" stroke="black" points="816,-120 816,-218 1030,-218 1030,-120 816,-120"/>
</g>
<!-- Pedestrian651579662 -->
<g id="node3" class="node">
<title>Pedestrian651579662</title>
<polygon fill="#ffffff" stroke="transparent" points="1134,-194 1048,-194 1048,-144 1134,-144 1134,-194"/>
<text text-anchor="start" x="1052.51" y="-176.4" font-family="Times New Roman,serif" font-size="14.00">(C)Pedestrian</text>
<text text-anchor="start" x="1053" y="-152.4" font-family="Times New Roman,serif" font-size="14.00">...</text>
<polygon fill="black" stroke="black" points="1048,-169 1048,-169 1134,-169 1134,-169 1048,-169"/>
<polygon fill="none" stroke="black" points="1048,-144 1048,-194 1134,-194 1134,-144 1048,-144"/>
</g>
<!-- Topography651579662 -->
<g id="node4" class="node">
<title>Topography651579662</title>
<polygon fill="#ffffff" stroke="transparent" points="1249.5,-194 1152.5,-194 1152.5,-144 1249.5,-144 1249.5,-194"/>
<text text-anchor="start" x="1157.96" y="-176.4" font-family="Times New Roman,serif" font-size="14.00">(C)Topography</text>
<text text-anchor="start" x="1158" y="-152.4" font-family="Times New Roman,serif" font-size="14.00">...</text>
<polygon fill="black" stroke="black" points="1153,-169 1153,-169 1250,-169 1250,-169 1153,-169"/>
<polygon fill="none" stroke="black" points="1152.5,-144 1152.5,-194 1249.5,-194 1249.5,-144 1152.5,-144"/>
</g>
<!-- AbstractGroupModel878952343 -->
<g id="node5" class="node">
<title>AbstractGroupModel878952343</title>
<polygon fill="#ffffff" stroke="transparent" points="513.5,-1096.6 210.5,-1096.6 210.5,-974.6 513.5,-974.6 513.5,-1096.6"/>
<text text-anchor="start" x="216" y="-1079" font-family="Times New Roman,serif" font-size="14.00">(C)AbstractGroupModel&lt;T extends Group&gt;</text>
<text text-anchor="start" x="216" y="-1055" font-family="Times New Roman,serif" font-size="14.00"># assignToGroup(pedestrian: Pedestrian)</text>
<text text-anchor="start" x="216" y="-1031" font-family="Times New Roman,serif" font-size="14.00"># getNewGroup(size: int): T</text>
<text text-anchor="start" x="216" y="-1007" font-family="Times New Roman,serif" font-size="14.00"># getNewGroup(id: int, size: int): T</text>
<text text-anchor="start" x="215.75" y="-983" font-family="Times New Roman,serif" font-size="14.00"># registerMember(ped: Pedestrian, currentGroup: T)</text>
<polygon fill="black" stroke="black" points="211,-1071.6 211,-1071.6 514,-1071.6 514,-1071.6 211,-1071.6"/>
<polygon fill="none" stroke="black" points="210.5,-974.6 210.5,-1096.6 513.5,-1096.6 513.5,-974.6 210.5,-974.6"/>
</g>
<!-- SIRGroupModel693799383 -->
<g id="node8" class="node">
<title>SIRGroupModel693799383</title>
<polygon fill="#ffffff" stroke="transparent" points="699.5,-937.6 24.5,-937.6 24.5,-383.6 699.5,-383.6 699.5,-937.6"/>
<text text-anchor="start" x="30" y="-920" font-family="Times New Roman,serif" font-size="14.00">(C)SIRGroupModel</text>
<text text-anchor="start" x="30" y="-896" font-family="Times New Roman,serif" font-size="14.00">&#45; &#160;&#160;attributesSIRG: AttributesSIRG [0..1]</text>
<text text-anchor="start" x="30" y="-872" font-family="Times New Roman,serif" font-size="14.00">&#45; &#160;&#160;groupsById: LinkedHashMap&lt;Integer, SIRGroup&gt; [0..*]</text>
<text text-anchor="start" x="30" y="-848" font-family="Times New Roman,serif" font-size="14.00">&#45; &#160;&#160;potentialFieldTarget: IPotentialFieldTarget [0..1]</text>
<text text-anchor="start" x="30" y="-824" font-family="Times New Roman,serif" font-size="14.00">&#45; &#160;&#160;random: Random [0..1]</text>
<text text-anchor="start" x="30" y="-800" font-family="Times New Roman,serif" font-size="14.00">&#45; &#160;&#160;sourceNextGroups: Map&lt;Integer, LinkedList&lt;SIRGroup&gt;&gt; [0..*]</text>
<text text-anchor="start" x="30" y="-776" font-family="Times New Roman,serif" font-size="14.00">&#45; &#160;&#160;topography: Topography [0..1]</text>
<text text-anchor="start" x="30" y="-752" font-family="Times New Roman,serif" font-size="14.00">&#45; &#160;&#160;totalInfected: int [1]</text>
<text text-anchor="start" x="30" y="-728" font-family="Times New Roman,serif" font-size="14.00"># assignToGroup(ped: Pedestrian, groupId: int)</text>
<text text-anchor="start" x="30" y="-704" font-family="Times New Roman,serif" font-size="14.00"># assignToGroup(ped: Pedestrian)</text>
<text text-anchor="start" x="30" y="-680" font-family="Times New Roman,serif" font-size="14.00">+ elementAdded(pedestrian: Pedestrian)</text>
<text text-anchor="start" x="30" y="-656" font-family="Times New Roman,serif" font-size="14.00">+ elementRemoved(pedestrian: Pedestrian)</text>
<text text-anchor="start" x="30" y="-632" font-family="Times New Roman,serif" font-size="14.00">+ getGroup(pedestrian: Pedestrian): SIRGroup</text>
<text text-anchor="start" x="30" y="-608" font-family="Times New Roman,serif" font-size="14.00"># getNewGroup(size: int): SIRGroup</text>
<text text-anchor="start" x="30" y="-584" font-family="Times New Roman,serif" font-size="14.00"># getNewGroup(id: int, size: int): SIRGroup</text>
<text text-anchor="start" x="29.69" y="-560" font-family="Times New Roman,serif" font-size="14.00">+ initialize(attributesList: List&lt;Attributes&gt;, domain: Domain, attributesPedestrian: AttributesAgent, random: Random)</text>
<text text-anchor="start" x="30" y="-536" font-family="Times New Roman,serif" font-size="14.00">&#45; initializeGroupsOfInitialPedestrians()</text>
<text text-anchor="start" x="30" y="-512" font-family="Times New Roman,serif" font-size="14.00">+ nextGroupForSource(sourceId: int): int</text>
<text text-anchor="start" x="30" y="-488" font-family="Times New Roman,serif" font-size="14.00">+ postLoop(simTimeInSec: double)</text>
<text text-anchor="start" x="30" y="-464" font-family="Times New Roman,serif" font-size="14.00">+ preLoop(simTimeInSec: double)</text>
<text text-anchor="start" x="30" y="-440" font-family="Times New Roman,serif" font-size="14.00">+ registerGroupSizeDeterminator(sourceId: int, gsD: GroupSizeDeterminator)</text>
<text text-anchor="start" x="30" y="-416" font-family="Times New Roman,serif" font-size="14.00"># registerMember(ped: Pedestrian, group: SIRGroup)</text>
<text text-anchor="start" x="30" y="-392" font-family="Times New Roman,serif" font-size="14.00">+ update(simTimeInSec: double)</text>
<polygon fill="black" stroke="black" points="25,-912.6 25,-912.6 700,-912.6 700,-912.6 25,-912.6"/>
<polygon fill="black" stroke="black" points="25,-744.6 25,-744.6 700,-744.6 700,-744.6 25,-744.6"/>
<polygon fill="none" stroke="black" points="24.5,-383.6 24.5,-937.6 699.5,-937.6 699.5,-383.6 24.5,-383.6"/>
</g>
<!-- AbstractGroupModel878952343&#45;&gt;SIRGroupModel693799383 -->
<g id="edge1" class="edge">
<title>AbstractGroupModel878952343&#45;&gt;SIRGroupModel693799383</title>
<path fill="none" stroke="black" d="M362,-964.05C362,-955.77 362,-946.99 362,-937.83"/>
<polygon fill="none" stroke="black" points="358.5,-964.26 362,-974.26 365.5,-964.26 358.5,-964.26"/>
</g>
<!-- CentroidGroup693783940 -->
<g id="node6" class="node">
<title>CentroidGroup693783940</title>
<polygon fill="#ffffff" stroke="transparent" points="195.5,-194 82.5,-194 82.5,-144 195.5,-144 195.5,-194"/>
<text text-anchor="start" x="87.79" y="-176.4" font-family="Times New Roman,serif" font-size="14.00">(C)CentroidGroup</text>
<text text-anchor="start" x="88" y="-152.4" font-family="Times New Roman,serif" font-size="14.00">...</text>
<polygon fill="black" stroke="black" points="83,-169 83,-169 196,-169 196,-169 83,-169"/>
<polygon fill="none" stroke="black" points="82.5,-144 82.5,-194 195.5,-194 195.5,-144 82.5,-144"/>
</g>
<!-- SIRGroup693799383 -->
<g id="node7" class="node">
<title>SIRGroup693799383</title>
<polygon fill="#ffffff" stroke="transparent" points="610.5,-314 213.5,-314 213.5,-24 610.5,-24 610.5,-314"/>
<text text-anchor="start" x="219" y="-296.4" font-family="Times New Roman,serif" font-size="14.00">(C)SIRGroup</text>
<text text-anchor="start" x="219" y="-272.4" font-family="Times New Roman,serif" font-size="14.00">&#45; &#160;&#160;id: int [1]</text>
<text text-anchor="start" x="219" y="-248.4" font-family="Times New Roman,serif" font-size="14.00"># &#160;&#160;members: ArrayList&lt;Pedestrian&gt; [0..*]</text>
<text text-anchor="start" x="219" y="-224.4" font-family="Times New Roman,serif" font-size="14.00">&#45; &#160;&#160;potentialFieldTarget: IPotentialFieldTarget [0..1]</text>
<text text-anchor="start" x="219" y="-200.4" font-family="Times New Roman,serif" font-size="14.00">&#45; &#160;&#160;size: int [1]</text>
<text text-anchor="start" x="219" y="-176.4" font-family="Times New Roman,serif" font-size="14.00">+ addMember(ped: Pedestrian)</text>
<text text-anchor="start" x="219" y="-152.4" font-family="Times New Roman,serif" font-size="14.00">+ agentElementEncountered(element: ScenarioElement, agentId: int)</text>
<text text-anchor="start" x="219" y="-128.4" font-family="Times New Roman,serif" font-size="14.00">+ agentNextTargetSet(nextSpeed: double, agentId: int)</text>
<text text-anchor="start" x="218.92" y="-104.4" font-family="Times New Roman,serif" font-size="14.00">+ agentTargetsChanged(targetIds: LinkedList&lt;Integer&gt;, agentId: int)</text>
<text text-anchor="start" x="219" y="-80.4" font-family="Times New Roman,serif" font-size="14.00">+ isMember(ped: Pedestrian): boolean</text>
<text text-anchor="start" x="219" y="-56.4" font-family="Times New Roman,serif" font-size="14.00">+ memberStream(): Stream&lt;Pedestrian&gt;</text>
<text text-anchor="start" x="219" y="-32.4" font-family="Times New Roman,serif" font-size="14.00">+ removeMember(ped: Pedestrian): boolean</text>
<polygon fill="black" stroke="black" points="214,-289 214,-289 611,-289 611,-289 214,-289"/>
<polygon fill="black" stroke="black" points="214,-193 214,-193 611,-193 611,-193 214,-193"/>
<polygon fill="none" stroke="black" points="213.5,-24 213.5,-314 610.5,-314 610.5,-24 213.5,-24"/>
</g>
<!-- SIRGroupModel693799383&#45;&gt;VPoint552144153 -->
<g id="edge9" class="edge">
<title>SIRGroupModel693799383&#45;&gt;VPoint552144153</title>
<path fill="none" stroke="black" d="M641.59,-383.52C682.95,-342.68 712,-314 712,-314 712,-314 733.6,-246.37 747.2,-203.81"/>
<polygon fill="black" stroke="black" points="750.59,-204.69 750.3,-194.1 743.92,-202.56 750.59,-204.69"/>
<text text-anchor="middle" x="753.69" y="-344.6" font-family="Times New Roman,serif" font-size="14.00">update() &#45;&gt; distance()</text>
</g>
<!-- SIRGroupModel693799383&#45;&gt;AttributesSIRG2068707775 -->
<g id="edge2" class="edge">
<title>SIRGroupModel693799383&#45;&gt;AttributesSIRG2068707775</title>
<path fill="none" stroke="black" d="M699.53,-441.5C766.69,-398.11 817,-365.6 817,-365.6 817,-365.6 860.74,-284.88 892.03,-227.15"/>
<polygon fill="black" stroke="black" points="895.25,-228.56 896.93,-218.1 889.09,-225.22 895.25,-228.56"/>
<text text-anchor="middle" x="875.99" y="-353" font-family="Times New Roman,serif" font-size="14.00">attributesSIRG</text>
<text text-anchor="middle" x="875.99" y="-336.2" font-family="Times New Roman,serif" font-size="14.00">[0..1]</text>
</g>
<!-- SIRGroupModel693799383&#45;&gt;Pedestrian651579662 -->
<g id="edge4" class="edge">
<title>SIRGroupModel693799383&#45;&gt;Pedestrian651579662</title>
<path fill="none" stroke="black" d="M699.87,-482.22C818.14,-420.13 922,-365.6 922,-365.6 922,-365.6 974.85,-332 974.85,-332 974.85,-332 1039,-314 1039,-314 1039,-314 1063.52,-246.09 1078.89,-203.54"/>
<polygon fill="black" stroke="black" points="1082.19,-204.7 1082.3,-194.1 1075.61,-202.32 1082.19,-204.7"/>
<text text-anchor="middle" x="1070.08" y="-344.6" font-family="Times New Roman,serif" font-size="14.00">assignToGroup() &#45;&gt; addGroupId()</text>
</g>
<!-- SIRGroupModel693799383&#45;&gt;Topography651579662 -->
<g id="edge8" class="edge">
<title>SIRGroupModel693799383&#45;&gt;Topography651579662</title>
<path fill="none" stroke="black" d="M699.6,-536.3C919.97,-455.82 1167,-365.6 1167,-365.6 1167,-365.6 1185.3,-260.32 1195.05,-204.24"/>
<polygon fill="black" stroke="black" points="1198.5,-204.83 1196.76,-194.38 1191.6,-203.63 1198.5,-204.83"/>
<text text-anchor="middle" x="1203.88" y="-353" font-family="Times New Roman,serif" font-size="14.00">topography</text>
<text text-anchor="middle" x="1203.88" y="-336.2" font-family="Times New Roman,serif" font-size="14.00">[0..1]</text>
</g>
<!-- SIRGroupModel693799383&#45;&gt;CentroidGroup693783940 -->
<g id="edge3" class="edge">
<title>SIRGroupModel693799383&#45;&gt;CentroidGroup693783940</title>
<path fill="none" stroke="black" d="M235.78,-383.52C217.11,-342.68 204,-314 204,-314 204,-314 168.38,-235.1 149.88,-194.1"/>
</g>
<!-- SIRGroupModel693799383&#45;&gt;SIRGroup693799383 -->
<g id="edge5" class="edge">
<title>SIRGroupModel693799383&#45;&gt;SIRGroup693799383</title>
<path fill="none" stroke="black" d="M348.85,-383.55C348.32,-372.25 348,-365.6 348,-365.6 348,-365.6 348,-332 348,-332 348,-332 350.74,-325.06 355.09,-314.04"/>
</g>
<!-- SIRGroupModel693799383&#45;&gt;SIRGroup693799383 -->
<g id="edge6" class="edge">
<title>SIRGroupModel693799383&#45;&gt;SIRGroup693799383</title>
<path fill="none" stroke="black" d="M366.97,-383.55C367.53,-352.64 367.9,-332 367.9,-332 367.9,-332 368.71,-329.01 370.12,-323.84"/>
<polygon fill="black" stroke="black" points="373.54,-324.61 372.79,-314.04 366.78,-322.77 373.54,-324.61"/>
<text text-anchor="middle" x="400.05" y="-353" font-family="Times New Roman,serif" font-size="14.00">groupsById</text>
<text text-anchor="middle" x="400.05" y="-336.2" font-family="Times New Roman,serif" font-size="14.00">[0..*]</text>
</g>
<!-- SIRGroupModel693799383&#45;&gt;SIRGroup693799383 -->
<g id="edge7" class="edge">
<title>SIRGroupModel693799383&#45;&gt;SIRGroup693799383</title>
<path fill="none" stroke="black" d="M429.6,-383.55C432.37,-372.25 434,-365.6 434,-365.6 434,-365.6 434,-332 434,-332 434,-332 433.61,-329.15 432.94,-324.21"/>
<polygon fill="black" stroke="black" points="436.38,-323.48 431.56,-314.04 429.44,-324.42 436.38,-323.48"/>
<text text-anchor="middle" x="486.48" y="-353" font-family="Times New Roman,serif" font-size="14.00">sourceNextGroups</text>
<text text-anchor="middle" x="486.48" y="-336.2" font-family="Times New Roman,serif" font-size="14.00">[0..*]</text>
</g>
</g>
</svg>
